<?xml version="1.0" encoding="utf-8"?>
<!-- Generator: Adobe Illustrator 24.1.3, SVG Export Plug-In . SVG Version: 6.00 Build 0)  -->
<svg version="1.1" id="_x31_" xmlns="http://www.w3.org/2000/svg" xmlns:xlink="http://www.w3.org/1999/xlink" x="0px" y="0px"
	 viewBox="0 0 512 512" style="enable-background:new 0 0 512 512;" xml:space="preserve">
<style type="text/css">
	.st0{fill:#FFFFFF;}
</style>
<g>
	<path class="st0" d="M419,99H188.9c-28.4,0-51.5,23.1-51.5,51.5v287.7c0,28.4,23.1,51.5,51.5,51.5H419c28.4,0,51.5-23.1,51.5-51.5
		V150.5C470.5,122.1,447.4,99,419,99z M444.3,150.5v287.7c0,13.9-11.3,25.3-25.3,25.3H188.9c-13.9,0-25.3-11.3-25.3-25.3V150.5
		c0-13.9,11.3-25.3,25.3-25.3H419C433,125.2,444.3,136.6,444.3,150.5z"/>
	<path class="st0" d="M112.1,406H93c-13.9,0-25.3-11.3-25.3-25.3V73.8C67.7,59.8,79,48.5,93,48.5h230.2c13.9,0,25.3,11.3,25.3,25.3
		c0,7.2,5.9,13.1,13.1,13.1s13.1-5.9,13.1-13.1c0-28.4-23.1-51.5-51.5-51.5H93c-28.4,0-51.5,23.1-51.5,51.5v306.9
		c0,28.4,23.1,51.5,51.5,51.5h19.2c7.2,0,13.1-5.9,13.1-13.1S119.4,406,112.1,406z"/>
	<path class="st0" d="M380.7,355.4c7.2,0,13.1-5.9,13.1-13.1s-5.9-13.1-13.1-13.1H227.2c-7.2,0-13.1,5.9-13.1,13.1
		s5.9,13.1,13.1,13.1H380.7z"/>
	<path class="st0" d="M394.7,423.2H224c-7.8,0-14.2,6.4-14.2,14.2s6.4,14.2,14.2,14.2h170.7c7.8,0,14.2-6.4,14.2-14.2
		S402.5,423.2,394.7,423.2z"/>
	<path class="st0" d="M394.7,252.5H224c-7.8,0-14.2,6.4-14.2,14.2s6.4,14.2,14.2,14.2h170.7c7.8,0,14.2-6.4,14.2-14.2
		S402.5,252.5,394.7,252.5z"/>
	<path class="st0" d="M227.2,202h153.5c7.2,0,13.1-5.9,13.1-13.1s-5.9-13.1-13.1-13.1H227.2c-7.2,0-13.1,5.9-13.1,13.1
		S220,202,227.2,202z"/>
</g>
</svg>
