<?xml version="1.0" encoding="utf-8"?>
<!-- Generator: Adobe Illustrator 24.1.3, SVG Export Plug-In . SVG Version: 6.00 Build 0)  -->
<svg version="1.1" id="Layer_1" xmlns="http://www.w3.org/2000/svg" xmlns:xlink="http://www.w3.org/1999/xlink" x="0px" y="0px"
	 viewBox="0 0 682 682" style="enable-background:new 0 0 682 682;" xml:space="preserve">
<style type="text/css">
	.st0{fill:#3D526C;}
</style>
<path class="st0" d="M347.1,361.7l42.2-48.6c-51.2-14.3-108.5,0.9-145.6,43.6c-51.3,59.2-45,149,14.2,200.4
	c59.2,51.3,149,45,200.4-14.2c37-42.7,44-101.3,22.9-150l-42.3,48.7c2.1,23.1-4.8,47-21.2,65.9c-31.9,36.7-87.7,40.7-124.4,8.8
	c-36.7-31.9-40.7-87.7-8.8-124.4C300.9,373,323.8,362.8,347.1,361.7z"/>
<path class="st0" d="M509.8,359.9c37,65.4,31,149.8-21,209.6c-66,76-181.5,84.2-257.5,18.2s-84.2-181.5-18.2-257.5
	c52-60,134.9-77.7,204.9-50.2l63.1-72.7c-110.8-59.5-252.2-36.7-338,62.2c-99.5,114.6-87.2,288.8,27.5,388.3s288.8,87.2,388.3-27.5
	c85.7-98.8,88.4-241.9,14.1-343.2L509.8,359.9z"/>
<path class="st0" d="M742.2,97.2c-3.6-8.5-11.6-14-20.9-14.4l-49.9-2.2l-9.2-49.1c-1.7-9.1-8.3-16.2-17.2-18.6
	c-8.9-2.4-18.2,0.4-24.2,7.4l-91,104.8c-4.8,5.5-6.8,12.8-5.4,20l11.4,60.9L364,404c-17.2-4.8-36.5,0.2-49,14.6
	c-17.2,19.9-15.1,50,4.8,67.3c19.9,17.2,50,15.1,67.3-4.8c12.5-14.4,14.8-34.2,7.6-50.5l171.9-198l61.9,2.7
	c7.3,0.3,14.3-2.7,19.1-8.2l91-104.8C744.4,115.3,745.9,105.7,742.2,97.2z"/>
</svg>
