<?xml version="1.0" encoding="utf-8"?>
<!-- Generator: Adobe Illustrator 24.1.3, SVG Export Plug-In . SVG Version: 6.00 Build 0)  -->
<svg version="1.1" id="Layer_1" xmlns="http://www.w3.org/2000/svg" xmlns:xlink="http://www.w3.org/1999/xlink" x="0px" y="0px"
	 viewBox="0 0 512.1 512.1" style="enable-background:new 0 0 512.1 512.1;" xml:space="preserve">
<style type="text/css">
	.st0{fill:#71D29C;}
</style>
<g>
	<g>
		<path class="st0" d="M378.3,241.7c-7.3-7.4-15.5-13.9-24.3-19.5c-23.3-14.9-50.4-22.8-78-22.8c-38.4-0.1-75.2,15.2-102.3,42.4
			L42.3,373.2C15.3,400.3,0.1,437,0,475.3C0,555.1,64.7,619.9,144.6,620c38.3,0.1,75.1-15,102.2-42.2l108.5-108.5
			c2-2,3.1-4.6,3.1-7.4c0-5.7-4.7-10.3-10.4-10.3h-4.1c-22.7,0.1-45.1-4.3-66.1-12.8c-3.9-1.6-8.3-0.7-11.3,2.3l-78,78.1
			c-24.2,24.2-63.5,24.2-87.7,0s-24.2-63.5,0-87.7l131.9-131.8c24.2-24.2,63.4-24.2,87.6,0c16.3,15.4,41.8,15.4,58.1,0
			c7-7,11.3-16.3,12-26.2C391,261.6,386.7,250.1,378.3,241.7z"/>
	</g>
</g>
<g>
	<g>
		<path class="st0" d="M577.6,42.4c-56.5-56.5-148.1-56.5-204.6,0L264.6,150.6c-3,3-3.8,7.5-2.2,11.4c1.6,3.9,5.5,6.4,9.7,6.3h3.8
			c22.6,0,45.1,4.3,66,12.9c3.9,1.6,8.3,0.7,11.3-2.3l77.8-77.7c24.2-24.2,63.5-24.2,87.7,0s24.2,63.5,0,87.7l-96.9,96.8l-0.8,0.9
			l-33.9,33.7c-24.2,24.2-63.4,24.2-87.6,0c-16.3-15.4-41.8-15.4-58.1,0c-7.1,7.1-11.3,16.5-12,26.4c-0.8,11.8,3.6,23.4,12,31.8
			c12,12,25.9,21.8,41.3,28.9c2.2,1,4.3,1.9,6.5,2.8c2.2,0.9,4.4,1.7,6.6,2.5s4.4,1.5,6.6,2.2l6.1,1.7c4.1,1,8.3,1.9,12.5,2.6
			c5.1,0.8,10.2,1.2,15.4,1.4h7.2h0.6l6.2-0.7c2.3-0.1,4.6-0.6,7.3-0.6h3.5l7.1-1l3.3-0.6l6-1.2h1.1c25.4-6.4,48.6-19.5,67.1-38
			l131.5-131.5C634.1,190.4,634.1,98.9,577.6,42.4z"/>
	</g>
</g>
</svg>
