<?xml version="1.0" encoding="utf-8"?>
<!-- Generator: Adobe Illustrator 24.1.3, SVG Export Plug-In . SVG Version: 6.00 Build 0)  -->
<svg version="1.1" id="Layer_1" xmlns="http://www.w3.org/2000/svg" xmlns:xlink="http://www.w3.org/1999/xlink" x="0px" y="0px"
	 viewBox="0 0 2921 940" style="enable-background:new 0 0 2921 940;" xml:space="preserve">
<style type="text/css">
	.st0{display:none;}
	.st1{fill:#0E2E51;}
	.st2{fill:#97C35E;}
	.st3{enable-background:new    ;}
	.st4{fill:#FFFFFF;}
</style>
<rect x="-122.4" y="-62.1" class="st0" width="3157.9" height="1058.1"/>
<path class="st1" d="M265.8,457.3c0,0-106.5-133-0.7-304.3C365.5-9.5,556.2,23.2,594.9,40.5C633.6,57.8,450.7,7.4,321.2,174
	c-44.3,57.1-56.1,107.9-59.3,152.7c-4.9,69.6,12.2,120.1,9.4,130.3C270.6,459.3,270.4,459.4,265.8,457.3z"/>
<path class="st1" d="M376.7,288.9c0,0,59.7-159.5,261-156.4c191,3,260.5,183.6,265.5,225.7s-45.3-140.8-254.8-166.8
	c-71.7-8.9-121.4,7-161.5,27.2c-62.3,31.4-96.9,71.9-107.1,74.7C377.3,294.1,377.2,293.9,376.7,288.9z"/>
<path class="st1" d="M586.8,299c0,0,168.9-22.1,260.5,157.1c87,170.1-39.9,316.2-74.8,340.3c-34.8,24.1,103.1-106.1,27.7-303.3
	c-25.8-67.5-63.2-104-99.8-129.8c-57-40.3-109-51.8-116.2-59.5C582.5,302,582.6,301.8,586.8,299z"/>
<path class="st1" d="M672.3,485.4c0,0,106.3,133.1,0.3,304.3C572,952,381.4,919,342.7,901.7C304,884.3,486.8,935,616.6,768.5
	c44.4-57,56.3-107.8,59.5-152.6c5-69.6-12-120.1-9.2-130.3C667.6,483.3,667.8,483.3,672.3,485.4z"/>
<path class="st1" d="M556.8,655.3c0,0-64.3,157.7-265.4,148.8C100.5,795.5,36.3,613,32.6,570.7c-3.7-42.2,41.3,142.1,249.9,174.1
	c71.4,11,121.6-3.5,162.2-22.5c63.2-29.6,99-69.1,109.2-71.6C556.3,650.1,556.4,650.3,556.8,655.3z"/>
<path class="st2" d="M353.7,638c0,0-168.8,23.1-261.5-155.6C4.3,312.8,130.3,166,165,141.6S62.5,248.4,139,445.1
	c26.2,67.4,63.8,103.6,100.6,129.3c57.2,39.9,109.3,51.2,116.6,58.8C357.9,634.9,357.8,635.1,353.7,638z"/>
<g class="st3">
	<path class="st4" d="M1073,542.5v126.2h-52.8V279h132.4c55.1,0,94.6,9.9,118.4,29.8c23.8,19.9,35.7,52.4,35.7,97.6
		c0,46-12.4,80.2-37.3,102.5c-24.9,22.4-63.2,33.6-115,33.6H1073z M1253.3,406.4c0-28.6-7.8-49-23.3-61.2
		c-15.5-12.2-41.3-18.3-77.4-18.3H1073v169.1h79.6c36,0,61.8-7,77.4-21.1C1245.5,460.7,1253.3,437.9,1253.3,406.4z"/>
	<path class="st4" d="M1700.7,472.9c0,70.9-13.6,122-40.7,153.5c-27.1,31.5-71.4,47.2-132.7,47.2c-65.9,0-111.4-14.6-136.4-43.8
		c-25.1-29.2-37.6-81.5-37.6-156.9c0-70.4,13.7-121.4,41-152.9c27.3-31.5,71.7-47.2,133-47.2c65.9,0,111.3,14.6,136.1,43.8
		C1688.3,345.8,1700.7,397.9,1700.7,472.9z M1425.4,585.4c7.9,14.1,19.5,24,34.8,29.8c15.3,5.8,37.7,8.7,67.1,8.7
		c46,0,77.5-11.1,94.5-33.3c17-22.2,25.5-61.4,25.5-117.8c0-28.2-1.5-51.3-4.4-69.3c-2.9-18-7.5-32.6-13.7-43.8
		c-7.9-14.1-19.4-24.1-34.5-30.1c-15.1-6-37.6-9-67.4-9c-46.4,0-78.1,11.2-95.1,33.6c-17,22.4-25.5,61.9-25.5,118.7
		c0,28.2,1.4,51.3,4.4,69.3C1414,560.3,1418.8,574.7,1425.4,585.4z"/>
	<path class="st4" d="M1826.3,528.9v139.8h-52.8V279h132.4c55.1,0,94.6,9.4,118.4,28.3c23.8,18.9,35.7,50,35.7,93.5
		c0,34-7.6,61-22.7,81.1c-15.1,20.1-38,33.7-68.7,40.7l101.9,146.1h-63.4l-94.5-139.8H1826.3z M2006.5,400.8
		c0-26.5-7.7-45.5-23-56.9c-15.3-11.4-41.2-17.1-77.7-17.1h-79.6v155.4h79.6c35.6,0,61.3-6.4,77.1-19.3
		C1998.6,450.1,2006.5,429.4,2006.5,400.8z"/>
	<path class="st4" d="M2404.3,279v47.9H2275v341.8h-52.8V326.9h-129.3V279H2404.3z"/>
	<path class="st4" d="M2511.2,279v389.7h-52.8V279H2511.2z"/>
	<path class="st4" d="M2751.1,505.2l-94.5-22.4c-26.1-6.2-45-16.9-56.6-32c-11.6-15.1-17.4-36.1-17.4-63.1c0-39.4,11.3-68.4,33.9-87
		c22.6-18.6,57.7-28,105.3-28c19.9,0,37.8,0.9,53.8,2.8c15.9,1.9,30.8,4.7,44.4,8.4v47.9c-17.4-4.1-34-7-49.7-8.7
		c-15.8-1.7-32.1-2.5-49.1-2.5c-31.9,0-54.3,4.7-67.1,14c-12.8,9.3-19.3,25.8-19.3,49.4c0,14.9,3,26.2,9,33.9
		c6,7.7,15.8,13.2,29.5,16.5l93.8,22.4c33.1,7.9,55.2,19,66.2,33.3c11,14.3,16.5,36.4,16.5,66.2c0,42.7-11.1,72.9-33.3,90.7
		c-22.2,17.8-57.3,26.7-105.3,26.7c-25.3,0-49.6-1.7-73-5c-23.4-3.3-42-7.7-55.6-13.1v-49.7c19.5,5.8,40.2,10.3,62.2,13.4
		c22,3.1,44.1,4.7,66.5,4.7c31.1,0,52.8-4.6,65.3-13.7c12.4-9.1,18.6-26.7,18.6-52.8c0-16.2-3-27.9-9-35.1
		C2780.2,515.1,2768.5,509.4,2751.1,505.2z"/>
</g>
</svg>
