<?xml version="1.0" encoding="utf-8"?>
<!-- Generator: Adobe Illustrator 24.1.3, SVG Export Plug-In . SVG Version: 6.00 Build 0)  -->
<svg version="1.1" id="Layer_1" xmlns="http://www.w3.org/2000/svg" xmlns:xlink="http://www.w3.org/1999/xlink" x="0px" y="0px"
	 viewBox="0 0 136 136" style="enable-background:new 0 0 136 136;" xml:space="preserve">
<style type="text/css">
	.st0{fill:#FBC658;}
</style>
<g id="surface1">
	<path class="st0" d="M116.5,100.1c20.3-28.6,13.5-68.2-15.1-88.5S33.1-1.8,12.9,26.8C-7.4,55.4-0.6,95,28,115.2
		c20.4,14.5,47.4,15.6,68.9,2.8l46.8,46.5c5.1,5.3,13.5,5.5,18.8,0.5c5.3-5,5.5-13.5,0.5-18.8c-0.2-0.2-0.3-0.3-0.5-0.5L116.5,100.1
		z M64.6,104.5c-22.6,0-40.9-18.3-40.9-40.9C23.7,41,42,22.6,64.6,22.6c22.6,0,40.9,18.3,40.9,40.8
		C105.6,86.1,87.3,104.4,64.6,104.5C64.7,104.5,64.6,104.5,64.6,104.5z"/>
</g>
</svg>
