<?xml version="1.0" encoding="utf-8"?>
<!-- Generator: Adobe Illustrator 24.1.3, SVG Export Plug-In . SVG Version: 6.00 Build 0)  -->
<svg version="1.1" id="Capa_1" xmlns="http://www.w3.org/2000/svg" xmlns:xlink="http://www.w3.org/1999/xlink" x="0px" y="0px"
	 viewBox="0 0 512 512" style="enable-background:new 0 0 512 512;" xml:space="preserve">
<style type="text/css">
	.st0{fill:#EE8057;stroke:#EE8057;stroke-width:30;stroke-miterlimit:10;}
</style>
<g>
	<path class="st0" d="M532.9,114.6L321.9,18.9c-5.3-2.4-11.3-2.6-16.7-0.5L88.5,100.2c-8.3,3.1-13.8,10.9-14.1,19.7l-3.5,107.9
		C66.1,376.5,151.6,513,287.4,573.6c5.2,2.3,11.1,2.5,16.5,0.5c139.4-51.7,233.5-182.5,238.3-331.1l3.5-107.9
		C545.9,126.3,540.9,118.2,532.9,114.6z M498.6,241.7c-4.1,126.3-82,240.2-201.5,288.3c-113-54.2-186.7-171-182.5-300.7l3-93.3
		l194.6-73.5l189.4,85.9L498.6,241.7z M280.1,308.2l96.8-90.7c8.8-8.2,22.6-7.8,30.9,1c8.2,8.8,7.8,22.6-1,30.9L294,355
		c-8.8,8.2-22.6,7.8-30.9-1l-59-62.9c-8.2-8.8-7.8-22.6,1-30.9c8.8-8.2,22.6-7.8,30.9,1L280.1,308.2z"/>
</g>
</svg>
