<?xml version="1.0" encoding="utf-8"?>
<!-- Generator: Adobe Illustrator 24.1.3, SVG Export Plug-In . SVG Version: 6.00 Build 0)  -->
<svg version="1.1" id="Layer_1" xmlns="http://www.w3.org/2000/svg" xmlns:xlink="http://www.w3.org/1999/xlink" x="0px" y="0px"
	 viewBox="0 0 2921 940" style="enable-background:new 0 0 2921 940;" xml:space="preserve">
<style type="text/css">
	.st0{fill:#0E2E51;}
	.st1{fill:#97C35E;}
	.st2{fill:#FFFFFF;}
	.st3{font-family:'Blinker-Regular';}
	.st4{font-size:621.5101px;}
</style>
<image style="display:none;overflow:visible;" width="966" height="942" xlink:href="996CEB2E23A882DB.png"  transform="matrix(1 0 0 1 -13 -1)">
</image>
<path class="st0" d="M265.8,457.3c0,0-106.5-133-0.7-304.3C365.5-9.5,556.2,23.2,594.9,40.5C633.6,57.8,450.7,7.4,321.2,174
	c-44.3,57.1-56.1,107.9-59.3,152.7c-4.9,69.6,12.2,120.1,9.4,130.3C270.6,459.3,270.4,459.4,265.8,457.3z"/>
<path class="st0" d="M376.7,288.9c0,0,59.7-159.5,261-156.4c191,3,260.5,183.6,265.5,225.7c5,42.1-45.3-140.8-254.8-166.8
	c-71.7-8.9-121.4,7-161.5,27.2c-62.3,31.4-96.9,71.9-107.1,74.7C377.3,294.1,377.2,293.9,376.7,288.9z"/>
<path class="st0" d="M586.8,299c0,0,168.9-22.1,260.5,157.1c87,170.1-39.9,316.2-74.8,340.3c-34.8,24.1,103.1-106.1,27.7-303.3
	c-25.8-67.5-63.2-104-99.8-129.8c-57-40.3-109-51.8-116.2-59.5C582.5,302,582.6,301.8,586.8,299z"/>
<path class="st0" d="M672.3,485.4c0,0,106.3,133.1,0.3,304.3C572,952,381.4,919,342.7,901.7C304,884.3,486.8,935,616.6,768.5
	c44.4-57,56.3-107.8,59.5-152.6c5-69.6-12-120.1-9.2-130.3C667.6,483.3,667.8,483.3,672.3,485.4z"/>
<path class="st0" d="M556.8,655.3c0,0-64.3,157.7-265.4,148.8C100.5,795.5,36.3,613,32.6,570.7c-3.7-42.2,41.3,142.1,249.9,174.1
	c71.4,11,121.6-3.5,162.2-22.5c63.2-29.6,99-69.1,109.2-71.6C556.3,650.1,556.4,650.3,556.8,655.3z"/>
<path class="st1" d="M353.7,638c0,0-168.8,23.1-261.5-155.6C4.3,312.8,130.3,166,165,141.6S62.5,248.4,139,445.1
	c26.2,67.4,63.8,103.6,100.6,129.3c57.2,39.9,109.3,51.2,116.6,58.8C357.9,634.9,357.8,635.1,353.7,638z"/>
<text transform="matrix(1 0 0 1 975.4468 668.7037)" class="st2 st3 st4">PORTIS</text>
</svg>
